<svg xmlns="http://www.w3.org/2000/svg" viewBox="0 0 476.97 429.02">
    <g fill="#0091d2">
        <path d="M284.4 55.2c0 16.16-2 34.34-6.06 53.88-12.8 54.55-17.52 89.57-14.82 104.39.67 3.37-1.35 5.38-6.74 6.73-3.37 2-8.08 2-13.47 1.35-10.1-2.7-14.81-8.75-13.47-18.86 6.06-43.1 11.45-74.75 16.17-95.63 4-21.56 6.06-37.05 6.06-45.8 0-11.45-2-18.19-6.06-21.55-4-2.7-14.82 8.75-33 34.34-18.85 27.62-31 49.84-35.69 70.72-7.41 30.31-10.1 49.17-10.78 54.56 0 .67-.67 5.38-.67 12.79 0 4.72-.67 8.08-2.69 9.43a26.55 26.55 0 0 1-8.76 1.35q-26.27 0-24.25-26.27c5.39-24.92 10.78-45.8 14.15-64 3.36-14.14 4-30.31 4-49.16q0-43.46-6.06-44.46c-7.41 1.35-16.84 13.47-29.64 36.37-10.1 18.19-16.84 34.35-24.25 50.51-10.1 35.7-16.83 63.31-21.55 84.19 0 2.7-.67 4.71-1.34 7.41-1.35 3.37-4.05 4.71-8.76 4.71-3.37 0-6.73 0-8.76-.67-10.1-3.37-15.48-9.43-15.48-18.18 0-2 0-3.37.67-4l23.57-91.6c4.71-13.47 4.71-29 4.71-45.8 0-15.49-2-22.9-6.73-22.9Q39.55 52.19 32.48 73.4q-2 14.14-2 20.21c0 3.36-4.71 5.38-14.81 5.38-6.07 0-10.11-1.34-12.13-4.71-4-4.72-4.71-12.8-1.34-23.57 4-14.15 12.12-27.62 23.57-41.76C39.91 12.11 52.71 4.03 65.51 6.05c14.14 2 21.55 20.2 22.89 53.21 4.05-9.43 12.13-20.88 23.58-33.68 15.49-16.16 29-24.92 40.41-25.59 19.53 0 28.29 24.24 26.94 72.06 3.37-8.75 13.47-21.55 30.31-39.06 20.2-21.55 36.37-32.33 48.49-31.65 17.51 1.35 26.27 19.54 26.27 53.86z"/>
        <path d="M477 254.6c0 6.06-2 8.76-6.74 8.76-20.87-1.35-43.1 1.35-66.67 8.75-5.39 15.49-13.47 34.35-24.92 57.93-33.67 66-73.42 99-119.88 99-14.15 0-24.93-2.69-32.34-8.76-4.71-2.69-6.73-8.08-6.73-16.83q0-40.42 58.59-97 33.35-31.32 99-54.55c2.7-10.11 10.1-38.39 20.88-88.9-27.62 38.38-53.2 57.92-75.43 57.92a46.1 46.1 0 0 1-22.23-6.07c-12.8-7.4-19.53-22.22-19.53-43.77 0-35 14.82-82.84 44.45-144.13 5.39-11.45 12.13-16.84 20.21-15.49 3.36 0 6.73 1.34 11.44 3.37s6.74 4.71 5.4 7.41c-2 2.69-4.72 8.75-10.11 19.53-7.4 14.14-14.81 35-22.9 61.28-10.77 32.33-15.49 56.58-15.49 72.07 0 12.12 2.7 18.18 8.76 18.18 9.43 0 23.57-12.8 42.43-39.06 18.18-26.26 31-48.49 39.73-72.07 4.72-23.57 9.43-48.49 16.84-74.75l.67-.68 1.36-1.34c.67-.68.67-.68 1.34-.68l.67-1.35c3.37-2 3.37-4.71 16.17 2.7q10.1 6.06 10.1 12.12v4c0 3.36-.67 8.07-1.35 15.48-1.34 30.31-11.45 86.89-30.3 169-2.7 13.47-5.39 24.92-8.09 35a140.78 140.78 0 0 1 31.66-4q20.2 0 28.29 8.07c3.37 3.37 4.71 6.07 4.71 9.44zm-113.15 32.33c-29.63 12.8-52.53 27.61-68 44.45-30.31 31-45.13 53.21-45.13 67.35 0 2.7.68 4 2 4.72a14.43 14.43 0 0 0 8.08 2c11.45 0 24.92-6.06 39.07-18.86 18.18-16.84 35.69-40.41 51.18-72.07 4.68-10.08 9.43-18.83 12.8-27.59z"/>
    </g>
</svg>